# xmcd
#
# Track frame offsets: 
#        150
#        10081
#        20240
#        30601
#        41759
#        52632
#        64451
#        77213
#        87166
#        100710
#        111185
#        122342
#        133121
#        144853
#        158413
#        171307
#        182360
#        194072
#        205576
#        218806
#        229122
#        239988
#        249341
#        260858
#        272906
#
# Disc length: 3765 seconds
#
# Revision: 1
# Processed by: cddbd v1.5.2PL0 Copyright (c) Steve Scherf et al.
# Submitted via: ExactAudioCopyFreeDBPlugin 1.0
#
DISCID=600eb319
DTITLE=Various Artist - Soul Sixties [Real Gone Music]
DYEAR=2015
DGENRE=Soul
TTITLE0=H.B. Barnum - It Hurts Too Much to Cry
TTITLE1=Big Al Downing - Heartbreak Hill
TTITLE2=Eugene Church - Light of the Moon
TTITLE3=William Bell - Any Other Way
TTITLE4=Mitty Collier - Don't Let Her Take My Baby
TTITLE5=Jimmy Jones - You're Much Too Young
TTITLE6=Ann Cole - Have Fun
TTITLE7=The Daylighters - Why You Do Me Wrong
TTITLE8=Sugar Pie DeSanto - I Wanna Know
TTITLE9=The Crystals - Uptown
TTITLE10=The Exciters - Tell Him
TTITLE11=Tony Clarke - Cry
TTITLE12=The Fiestas - Broken Heart
TTITLE13=Maureen Gray - Dancin' the Strand
TTITLE14=Big Dee Irwin - And Heaven was Here
TTITLE15=The Four Tops - Pennies from Heaven
TTITLE16=Barbara George - You Talk About Love
TTITLE17=Dobie Gray - Look at Me
TTITLE18=James Brown - (Can You) Feel It, Part 1
TTITLE19=Bruce Cloud - My Book
TTITLE20=The Dubs - This to Me is Love
TTITLE21=Fontella Bass - Honey Bee
TTITLE22=Roy Hamilton - Earthquake
TTITLE23=The Contours - Shake Sherry
TTITLE24=Bobby Freeman - Love Me
EXTD=
EXTT0=
EXTT1=
EXTT2=
EXTT3=
EXTT4=
EXTT5=
EXTT6=
EXTT7=
EXTT8=
EXTT9=
EXTT10=
EXTT11=
EXTT12=
EXTT13=
EXTT14=
EXTT15=
EXTT16=
EXTT17=
EXTT18=
EXTT19=
EXTT20=
EXTT21=
EXTT22=
EXTT23=
EXTT24=
PLAYORDER=
